<svg viewBox="0 0 210 210" xmlns="http://www.w3.org/2000/svg"><path d="m0 0h210v210h-210z"/><g fill="#fff"><path d="m117.28 182.16c-.47 0-.9-.07-1.3-.22-.4-.16-.74-.37-1.04-.65s-.52-.61-.68-.99-.24-.79-.24-1.24.08-.87.24-1.25.39-.71.68-.99c.3-.28.64-.5 1.04-.64.4-.16.83-.23 1.31-.23.52 0 .99.09 1.41.27s.78.45 1.07.79l-.9.83c-.21-.24-.44-.41-.69-.53s-.52-.18-.82-.18c-.28 0-.54.05-.78.14-.23.09-.43.23-.61.4-.17.17-.31.37-.4.61s-.14.5-.14.79.05.55.14.79c.09.23.23.43.4.61.17.17.38.3.61.39.24.09.5.14.78.14.3 0 .57-.06.82-.18.26-.12.49-.3.69-.53l.9.82c-.29.35-.64.62-1.07.8-.42.18-.89.27-1.42.27zm6.22 0c-.48 0-.92-.08-1.33-.23-.41-.16-.76-.37-1.06-.65-.29-.28-.52-.61-.68-.99s-.24-.79-.24-1.23.08-.86.24-1.24.39-.71.69-.99.65-.5 1.05-.65c.41-.16.84-.23 1.32-.23s.91.08 1.31.23c.4.16.74.37 1.04.65s.53.61.69.99c.17.37.25.79.25 1.24s-.08.86-.25 1.24c-.16.38-.39.71-.69.99-.29.27-.64.49-1.04.64-.4.16-.83.23-1.3.23zm-.01-1.19c.27 0 .51-.05.74-.14s.43-.22.6-.39.31-.38.4-.61c.09-.24.14-.5.14-.79s-.05-.55-.14-.79-.22-.44-.39-.61-.37-.31-.6-.4-.48-.14-.75-.14-.52.05-.75.14-.42.23-.6.4c-.17.17-.31.37-.4.61s-.14.5-.14.79.05.54.14.78.22.44.39.62c.17.17.37.3.6.39s.48.14.76.14zm4.34 1.08v-6.03h1.16l2.56 4.25h-.61l2.52-4.25h1.14l.02 6.03h-1.31v-4.02s.23 0 .23 0l-2.02 3.38h-.63l-2.06-3.38h.29v4.02h-1.31zm8.22 0v-6.03h2.62c.54 0 1 .09 1.38.26.39.17.69.43.91.76.21.32.32.71.32 1.17s-.11.84-.32 1.17c-.21.32-.51.57-.91.75-.39.17-.85.26-1.38.26h-1.84l.63-.63v2.29h-1.4zm1.41-2.13-.63-.66h1.76c.43 0 .75-.09.96-.27.21-.19.32-.45.32-.78s-.11-.59-.32-.77c-.21-.19-.53-.28-.96-.28h-1.76l.63-.66zm3.72 2.13 2.68-6.03h1.37l2.7 6.03h-1.47l-2.21-5.32h.55l-2.21 5.32h-1.43zm1.34-1.29.37-1.06h3.1l.37 1.06h-3.85zm6.04 1.29v-6.03h1.16l3.55 4.34h-.56v-4.34h1.38v6.03h-1.15l-3.56-4.34h.56v4.34zm8.46 0v-2.46l.32.84-2.65-4.41h1.49l2.03 3.38h-.85l2.04-3.38h1.36l-2.65 4.41.31-.84v2.46h-1.39z"/><path d="m90.55 183.54c-2.27 0-2.45-1.74-2.14-3.03l.4-1.87c.49-2.14 1.51-3.16 3.65-3.16h4.37c.18 0 .27.13.22.27l-.45 1.78c-.04.18-.18.27-.36.27h-3.65c-.76 0-1.43.09-1.6.8l-.36 1.65c-.13.49-.09.89.49.89h4.46c.18 0 .27.13.22.27l-.36 1.78c-.04.18-.18.27-.36.27l-4.54.09zm-13.28 0h3.03c2.14 0 2.94-.89 3.43-3.03l.4-1.87c.31-1.29.18-3.16-2.09-3.16h-3.03c-2.14 0-3.16 1.02-3.65 3.16l-1.56 7.04c-.04.13.04.27.22.27h1.87c.13 0 .31-.13.36-.27l.49-2.18c.18 0 .36.04.53.04zm.36-4.9c.22-.71.85-.8 1.6-.8h2.18c.53 0 .71.31.58.8l-.36 1.51c-.18.85-.53 1.07-1.34 1.07h-2.54c-.58 0-.58-.45-.49-.89l.36-1.69zm21.88 0c.22-.71.85-.8 1.65-.8h2.14c.53 0 .71.31.58.8l-.36 1.51c-.18.85-.53 1.07-1.34 1.07h-2.54c-.58 0-.58-.45-.49-.89zm2.71 4.9c2.14 0 2.94-.89 3.43-3.03l.45-1.87c.31-1.29.18-3.16-2.09-3.16h-3.03c-2.14 0-3.16 1.02-3.65 3.16l-.4 1.87c-.31 1.29-.13 3.03 2.14 3.03h3.16zm-31.58-.31c-.04.13.04.27.22.27h1.87c.13 0 .31-.13.36-.27l1.65-7.53c.04-.13-.04-.27-.22-.27h-1.87c-.13 0-.31.13-.36.27zm13.54 0c-.04.13.04.27.22.27h1.87c.13 0 .31-.13.36-.27l1.65-7.53c.04-.13-.04-.27-.22-.27h-1.87c-.13 0-.31.13-.36.27zm-21.92-5.7c-.04.13.04.27.22.27h1.92l-.58 2.67c-.31 1.29.04 3.03 2.32 3.03h2.85c.13 0 .31-.13.31-.27l.27-1.47c.04-.13-.04-.27-.22-.27h-2.58c-.62 0-.67-.45-.53-.98l.62-2.67h3.34c.13 0 .31-.13.36-.27l.4-1.78c.04-.13-.04-.27-.22-.27h-7.71c-.13 0-.31.13-.36.27l-.4 1.74zm5.61-4.19c0-.76-.62-1.38-1.38-1.38s-1.38.62-1.38 1.38.62 1.38 1.38 1.38c.76.04 1.38-.58 1.38-1.38z"/><path d="m48.25 181.97 2.61-5.86h1.35l2.62 5.86h-1.42l-2.14-5.18h.53l-2.15 5.18h-1.39zm1.31-1.25.36-1.04h3.02l.36 1.04z"/><path d="m155.37 54.63v100.74h-100.74v-100.74zm6.38-6.38h-113.5v113.51h113.51v-113.51z"/><path d="m129.48 109.06h-17.88v6.3h10.6c-1.91 8.08-8.9 14.06-17.23 14.06-9.8 0-17.74-8.29-17.74-18.5 0-.63.03-1.25.09-1.86h-6.81c-.04.6-.07 1.21-.07 1.82 0 13.55 11 24.54 24.54 24.54v.03c.62 0 1.23-.03 1.85-.08 13.51-1.02 23.65-12.8 22.63-26.31z"/><path d="m81.85 102.67v.07s7.19 0 7.19 0c2.89-6.13 8.94-10.34 15.93-10.34s13.05 4.21 15.93 10.34h7.25c-1.16-3.28-2.99-6.27-5.39-8.78-9.36-9.81-24.9-10.18-34.71-.82v-12.85h24.14v-6.3h-30.42v28.69h.09z"/></g></svg>