<svg viewBox="0 0 630 210" xmlns="http://www.w3.org/2000/svg"><path d="m0 0h630v210h-630z"/><g fill="#fff"><path d="m506.85 189.01c-.78 0-1.51-.12-2.17-.37-.67-.26-1.24-.62-1.73-1.09s-.87-1.02-1.14-1.66-.41-1.33-.41-2.08.14-1.46.41-2.09.65-1.19 1.14-1.66c.5-.47 1.08-.83 1.73-1.08.67-.26 1.4-.39 2.19-.39.87 0 1.66.15 2.36.45.71.3 1.3.74 1.78 1.33l-1.5 1.39c-.34-.4-.73-.69-1.16-.89-.42-.2-.87-.3-1.37-.3-.47 0-.9.08-1.3.23-.39.16-.72.38-1.02.67-.29.28-.52.62-.67 1.02s-.23.83-.23 1.31.08.92.23 1.31c.16.39.38.72.67 1.02.29.28.63.5 1.02.66.4.16.83.23 1.3.23.5 0 .96-.1 1.37-.3.43-.2.81-.49 1.16-.89l1.5 1.37c-.48.58-1.07 1.03-1.78 1.34-.7.3-1.49.45-2.37.45zm10.41 0c-.8 0-1.54-.13-2.22-.39s-1.27-.62-1.77-1.09c-.49-.47-.87-1.02-1.14-1.66s-.41-1.32-.41-2.06.14-1.44.41-2.08.66-1.19 1.16-1.66 1.08-.83 1.75-1.09c.68-.26 1.41-.39 2.2-.39s1.52.13 2.19.39 1.24.62 1.73 1.09c.5.47.89 1.02 1.16 1.66.28.62.42 1.32.42 2.08s-.14 1.43-.42 2.08c-.27.64-.66 1.19-1.16 1.66-.49.46-1.07.82-1.73 1.08-.67.26-1.39.39-2.17.39zm-.01-1.99c.45 0 .86-.08 1.23-.23.39-.16.72-.37 1-.66.29-.29.52-.63.67-1.02.16-.4.23-.83.23-1.31s-.08-.92-.23-1.31-.37-.73-.66-1.02c-.28-.29-.61-.52-1-.67-.39-.16-.8-.23-1.25-.23s-.87.08-1.25.23-.71.38-1 .67c-.29.28-.52.62-.67 1.02s-.23.83-.23 1.31.08.9.23 1.3.37.74.66 1.03c.29.28.62.5 1 .66.39.16.81.23 1.27.23zm7.25 1.82v-10.08h1.94l4.28 7.11h-1.02l4.22-7.11h1.91l.03 10.08h-2.19l-.02-6.72h.41l-3.37 5.66h-1.05l-3.44-5.66h.48v6.72h-2.19zm13.75 0v-10.08h4.37c.9 0 1.67.15 2.31.44.66.29 1.16.71 1.52 1.27.35.54.53 1.19.53 1.95s-.18 1.4-.53 1.95c-.35.54-.86.96-1.52 1.25-.65.29-1.42.44-2.31.44h-3.08l1.05-1.05v3.83zm2.34-3.57-1.05-1.11h2.94c.72 0 1.26-.15 1.61-.45.35-.31.53-.74.53-1.3s-.18-.98-.53-1.28c-.35-.31-.89-.47-1.61-.47h-2.94l1.05-1.11zm6.23 3.57 4.48-10.08h2.3l4.52 10.08h-2.45l-3.69-8.89h.92l-3.69 8.89zm2.24-2.16.62-1.77h5.19l.62 1.77h-6.44zm10.1 2.16v-10.08h1.94l5.94 7.25h-.94v-7.25h2.31v10.08h-1.92l-5.95-7.25h.94v7.25h-2.31zm14.14 0v-4.11l.53 1.41-4.44-7.37h2.48l3.39 5.66h-1.42l3.41-5.66h2.28l-4.42 7.37.52-1.41v4.11z"/><path d="m462.18 191.32c-3.8 0-4.1-2.9-3.57-5.06l.67-3.13c.82-3.57 2.53-5.29 6.11-5.29h7.3c.3 0 .45.22.37.45l-.74 2.98c-.07.3-.3.45-.6.45h-6.11c-1.27 0-2.38.15-2.68 1.34l-.6 2.76c-.22.82-.15 1.49.82 1.49h7.45c.3 0 .45.22.37.45l-.6 2.98c-.07.3-.3.45-.6.45l-7.6.15zm-22.19 0h5.06c3.57 0 4.92-1.49 5.73-5.06l.67-3.13c.52-2.16.3-5.29-3.5-5.29h-5.06c-3.57 0-5.29 1.71-6.11 5.29l-2.61 11.77c-.07.22.07.45.37.45h3.13c.22 0 .52-.22.6-.45l.82-3.65c.3 0 .6.07.89.07zm.59-8.19c.37-1.19 1.42-1.34 2.68-1.34h3.65c.89 0 1.19.52.97 1.34l-.6 2.53c-.3 1.42-.89 1.79-2.23 1.79h-4.25c-.97 0-.97-.74-.82-1.49zm36.57 0c.37-1.19 1.42-1.34 2.76-1.34h3.57c.89 0 1.19.52.97 1.34l-.6 2.53c-.3 1.42-.89 1.79-2.23 1.79h-4.25c-.97 0-.97-.74-.82-1.49zm4.54 8.19c3.57 0 4.92-1.49 5.73-5.06l.74-3.13c.52-2.16.3-5.29-3.5-5.29h-5.06c-3.57 0-5.29 1.71-6.11 5.29l-.67 3.13c-.52 2.16-.22 5.06 3.57 5.06h5.29zm-52.8-.52c-.07.22.07.45.37.45h3.13c.22 0 .52-.22.6-.45l2.76-12.59c.07-.22-.07-.45-.37-.45h-3.13c-.22 0-.52.22-.6.45zm22.64 0c-.07.22.07.45.37.45h3.13c.22 0 .52-.22.6-.45l2.76-12.59c.07-.22-.07-.45-.37-.45h-3.13c-.22 0-.52.22-.6.45zm-36.64-9.53c-.07.22.07.45.37.45h3.2l-.97 4.47c-.52 2.16.07 5.06 3.87 5.06h4.77c.22 0 .52-.22.52-.45l.45-2.46c.07-.22-.07-.45-.37-.45h-4.32c-1.04 0-1.12-.74-.89-1.64l1.04-4.47h5.59c.22 0 .52-.22.6-.45l.67-2.98c.07-.22-.07-.45-.37-.45h-12.88c-.22 0-.52.22-.6.45l-.67 2.9zm9.38-7c0-1.27-1.04-2.31-2.31-2.31s-2.31 1.04-2.31 2.31 1.04 2.31 2.31 2.31c1.27.07 2.31-.97 2.31-2.31z"/><path d="m391.46 188.69 4.36-9.8h2.25l4.37 9.8h-2.37l-3.58-8.66h.89l-3.59 8.66zm2.19-2.09.59-1.73h5.05l.61 1.73z"/><path d="m574.15 54.63v100.74h-411.18v-100.74zm6.38-6.38h-423.94v113.51h423.95v-113.51z"/><path d="m186.73 122.04 2.36-4.98c3.32 3 9 5.17 14.75 5.17 7.72 0 11.04-3 11.04-6.89 0-10.92-27.07-4.02-27.07-20.62 0-6.89 5.36-12.77 17.11-12.77 5.24 0 10.66 1.41 14.36 3.96l-2.11 5.11c-3.89-2.49-8.3-3.64-12.26-3.64-7.6 0-10.85 3.19-10.85 7.09 0 10.92 27.07 4.09 27.07 20.49 0 6.83-5.49 12.71-17.3 12.71-6.83 0-13.53-2.3-17.11-5.62z"/><path d="m259.53 111.7v15.45h-6.32v-15.58l-17.75-29.11h6.83l14.3 23.56 14.36-23.56h6.32l-17.75 29.24z"/><path d="m290.27 122.04 2.36-4.98c3.32 3 9 5.17 14.75 5.17 7.73 0 11.04-3 11.04-6.89 0-10.92-27.07-4.02-27.07-20.62 0-6.89 5.36-12.77 17.11-12.77 5.23 0 10.66 1.41 14.36 3.96l-2.11 5.11c-3.89-2.49-8.3-3.64-12.26-3.64-7.6 0-10.85 3.19-10.85 7.09 0 10.92 27.07 4.09 27.07 20.49 0 6.83-5.49 12.71-17.3 12.71-6.83 0-13.53-2.3-17.11-5.62z"/><path d="m355.28 88.01h-15.32v-5.55h36.96v5.55h-15.32v39.14h-6.32z"/><path d="m427.53 121.59v5.55h-32.43v-44.69h31.54v5.55h-25.15v13.73h22.41v5.43h-22.41v14.43h26.05z"/><path d="m489.47 127.15-.06-32.56-16.15 27.13h-2.94l-16.15-26.94v32.37h-6.13v-44.69h5.24l18.64 31.41 18.39-31.41h5.23l.06 44.69z"/><path d="m516.37 122.04 2.36-4.98c3.32 3 9 5.17 14.75 5.17 7.72 0 11.04-3 11.04-6.89 0-10.92-27.07-4.02-27.07-20.62 0-6.89 5.36-12.77 17.11-12.77 5.24 0 10.66 1.41 14.37 3.96l-2.11 5.11c-3.89-2.49-8.3-3.64-12.26-3.64-7.6 0-10.85 3.19-10.85 7.09 0 10.92 27.07 4.09 27.07 20.49 0 6.83-5.49 12.71-17.3 12.71-6.83 0-13.54-2.3-17.11-5.62z"/><path d="m156.59 54.63v100.74h-100.74v-100.74zm6.38-6.38h-113.5v113.51h113.51v-113.51z"/><path d="m130.69 109.06h-17.88v6.3h10.6c-1.91 8.08-8.9 14.06-17.23 14.06-9.8 0-17.74-8.29-17.74-18.5 0-.63.03-1.25.09-1.86h-6.81c-.04.6-.07 1.21-.07 1.82 0 13.55 11 24.54 24.54 24.54v.03c.62 0 1.23-.03 1.85-.08 13.51-1.02 23.65-12.8 22.63-26.31z"/><path d="m83.07 102.67v.07s7.19 0 7.19 0c2.89-6.13 8.94-10.34 15.93-10.34s13.05 4.21 15.93 10.34h7.25c-1.16-3.28-2.99-6.27-5.39-8.78-9.36-9.81-24.9-10.18-34.71-.82v-12.85h24.14v-6.3h-30.42v28.69h.09z"/></g></svg>